# xmcd
#
# Track frame offsets:
#	150
#	16694
#	33795
#	47900
#	61435
#	77355
#	93225
#	108790
#	122650
#	137915
#	156517
#	173855
#
# Disc length: 2526 seconds
#
# Revision: 0
# Processed by: cddbd v1.5.1PL2 Copyright (c) Steve Scherf et al.
# Submitted via: dBpowerAMP V4.0
#
DISCID=8e09dc0c
DTITLE=AS MINEIRINHAS - AS MINEIRINHAS
DYEAR=2005
DGENRE=Country
TTITLE0=ENGANO
TTITLE1=FUI UMA BOBA
TTITLE2=ASSIM NÃO DÁ
TTITLE3=ESTRADA DA ILUSÃO
TTITLE4=MULHER, CACHAÇA E VIOLA
TTITLE5=OLHOS DE ADEUS
TTITLE6=FOI TUDO CULPA DO AMOR
TTITLE7=EU TÔ LIGADO EM VOCÊ
TTITLE8=MATA  A MENINA
TTITLE9=CUSTE O QUE CUSTAR
TTITLE10=TATUAGEM
TTITLE11=REQUEBRA, QUEBROU
EXTD=LEONARDO
EXTT0=
EXTT1=
EXTT2=
EXTT3=
EXTT4=
EXTT5=
EXTT6=
EXTT7=
EXTT8=
EXTT9=
EXTT10=
EXTT11=
PLAYORDER=
